<?xml version="1.0" standalone="no"?>
<!DOCTYPE svg PUBLIC "-//W3C//DTD SVG 20010904//EN"
 "http://www.w3.org/TR/2001/REC-SVG-20010904/DTD/svg10.dtd">
<svg version="1.0" xmlns="http://www.w3.org/2000/svg"
 width="512.000000pt" height="512.000000pt" viewBox="0 0 512.000000 512.000000"
 preserveAspectRatio="xMidYMid meet">
<metadata>
Created by potrace 1.14, written by Peter Selinger 2001-2017
</metadata>
<g transform="translate(0.000000,512.000000) scale(0.100000,-0.100000)"
fill="#000000" stroke="none">
<path d="M2340 4915 c-30 -11 -216 -98 -360 -168 -67 -33 -120 -92 -174 -197
-90 -174 -150 -246 -267 -322 -43 -27 -89 -64 -102 -82 -41 -53 -192 -308
-209 -351 -52 -134 -18 -268 132 -529 44 -77 80 -142 80 -145 0 -4 -15 -42
-34 -85 -47 -107 -60 -193 -51 -330 4 -61 9 -203 11 -316 5 -303 36 -479 106
-613 28 -53 81 -111 122 -134 15 -8 14 -18 -5 -123 -11 -63 -26 -120 -32 -127
-18 -17 -341 -182 -506 -258 -122 -56 -341 -149 -437 -186 -15 -5 -25 -12 -22
-14 9 -9 409 160 558 235 44 22 62 27 65 18 2 -7 16 -49 29 -93 47 -148 123
-247 252 -325 60 -36 259 -120 284 -120 8 1 -32 18 -89 40 -57 22 -132 56
-167 75 -83 46 -176 133 -213 198 -33 60 -84 208 -79 232 3 16 328 190 328
176 0 -3 -9 -38 -19 -76 -11 -38 -18 -72 -16 -74 5 -5 9 4 34 99 11 41 27 120
36 175 9 55 18 106 21 114 3 9 24 -7 60 -47 121 -135 301 -242 479 -287 81
-21 119 -25 224 -23 l126 1 -150 7 c-172 9 -253 28 -379 91 -111 55 -189 114
-281 210 -43 46 -94 93 -111 104 -95 60 -166 223 -193 445 -15 119 -13 428 4
600 15 156 42 356 52 380 3 8 7 31 10 50 8 71 57 259 100 385 126 367 279 532
527 567 91 13 189 -1 332 -46 61 -19 191 -56 288 -81 309 -81 422 -124 552
-211 139 -92 251 -234 294 -372 103 -333 -46 -1116 -311 -1632 -109 -213 -168
-270 -374 -369 -107 -52 -193 -83 -296 -106 -54 -13 -57 -14 -18 -10 75 7 228
61 344 120 60 30 110 53 112 51 12 -11 -115 -453 -148 -518 -11 -22 -18 -42
-16 -44 3 -4 31 55 63 134 8 21 15 16 98 -74 l89 -95 -29 -31 c-37 -38 -95
-73 -187 -110 -40 -16 -59 -26 -42 -23 55 12 170 71 218 113 27 23 51 42 54
42 4 0 16 -8 27 -19 53 -46 467 -301 491 -301 5 0 -22 18 -61 39 -38 21 -144
85 -235 142 -138 88 -183 123 -288 225 l-125 121 42 154 c23 85 47 177 53 204
9 40 22 59 60 93 75 66 170 224 250 412 13 30 41 73 64 95 82 81 178 274 221
442 36 143 29 238 -22 295 -13 14 -15 30 -9 88 4 38 11 73 16 76 5 3 7 9 4 14
-3 4 3 7 13 6 9 0 16 4 15 11 -2 7 3 10 11 7 14 -5 136 100 136 118 0 5 -4 6
-10 3 -16 -10 -11 1 7 16 15 12 16 12 8 -1 -8 -13 -7 -13 8 -1 20 16 23 36 5
25 -8 -4 -10 -3 -5 2 5 5 14 9 19 9 6 0 13 6 16 14 3 9 0 11 -9 6 -8 -5 -11
-4 -6 1 5 5 14 9 20 9 7 0 11 8 11 17 -1 10 3 16 10 15 6 -1 10 6 10 15 -1 10
3 16 10 15 6 -1 10 6 10 15 -1 10 3 16 8 15 6 -1 13 4 16 12 3 9 0 11 -9 6 -8
-5 -11 -4 -6 1 5 5 14 9 20 9 5 0 12 6 15 14 3 9 0 11 -9 6 -8 -5 -11 -4 -6 1
5 5 14 9 20 9 5 0 12 6 15 14 3 9 0 11 -9 6 -8 -5 -11 -4 -6 1 5 5 14 9 20 9
5 0 12 6 15 14 3 9 0 11 -8 6 -9 -5 -11 -4 -6 4 4 6 11 9 16 6 11 -7 33 32 25
45 -3 5 0 12 6 16 8 5 9 3 4 -6 -6 -9 -4 -11 4 -6 7 5 10 14 7 22 -3 8 0 13 6
11 6 -1 13 4 16 12 3 9 0 11 -8 6 -9 -5 -11 -4 -6 4 4 6 11 9 16 6 13 -8 69
107 80 164 6 34 5 67 -6 117 -15 76 -88 239 -103 230 -5 -3 -8 2 -7 12 0 9 -5
16 -12 14 -8 -1 -11 2 -7 7 3 6 -7 30 -22 53 -32 50 -36 115 -13 210 13 55 13
59 -7 85 -37 50 -80 68 -153 64 -192 -12 -232 -2 -329 85 -49 44 -69 56 -55
32 5 -9 2 -8 -9 1 -10 8 -15 16 -12 19 6 7 -25 42 -37 42 -5 0 -6 -6 -2 -12 4
-8 3 -10 -2 -5 -5 5 -9 14 -9 20 0 7 -8 11 -18 11 -9 -1 -14 2 -11 7 10 17
-86 51 -225 79 -75 15 -176 40 -226 54 -103 30 -162 32 -270 10 -42 -9 -83
-13 -91 -10 -10 4 -14 23 -14 73 0 108 -34 134 -130 98z m1571 -552 c13 -16
12 -17 -3 -4 -17 13 -22 21 -14 21 2 0 10 -8 17 -17z m26 -75 c-3 -7 -5 -2 -5
12 0 14 2 19 5 13 2 -7 2 -19 0 -25z m83 -358 c6 -11 8 -20 6 -20 -3 0 -10 9
-16 20 -6 11 -8 20 -6 20 3 0 10 -9 16 -20z m77 -332 c-3 -8 -6 -5 -6 6 -1 11
2 17 5 13 3 -3 4 -12 1 -19z m-37 -88 c-6 -11 -13 -20 -16 -20 -2 0 0 9 6 20
6 11 13 20 16 20 2 0 0 -9 -6 -20z m-2659 -650 c-12 -89 -21 -180 -22 -203 0
-39 -1 -40 -11 -17 -17 41 -3 245 22 323 12 38 24 67 26 64 3 -3 -4 -78 -15
-167z m2339 167 c0 -2 -15 -16 -32 -33 l-33 -29 29 33 c28 30 36 37 36 29z
m-70 -61 c0 -2 -8 -10 -17 -17 -16 -13 -17 -12 -4 4 13 16 21 21 21 13z m-69
-280 c25 -56 24 -134 -5 -248 -31 -121 -74 -224 -135 -324 -49 -80 -113 -151
-97 -109 65 168 159 508 187 667 12 75 21 77 50 14z"/>
<path d="M1873 3575 c-69 -19 -135 -53 -128 -65 3 -5 -1 -7 -9 -4 -21 8 -146
-115 -146 -143 0 -36 33 -36 147 2 137 46 250 55 370 31 87 -18 102 -16 138
24 24 27 25 83 1 109 -30 33 -104 52 -216 57 -74 3 -121 0 -157 -11z m110 -2
c-7 -2 -21 -2 -30 0 -10 3 -4 5 12 5 17 0 24 -2 18 -5z m60 0 c-7 -2 -21 -2
-30 0 -10 3 -4 5 12 5 17 0 24 -2 18 -5z"/>
<path d="M2810 3431 c-14 -4 -25 -12 -25 -18 0 -6 -4 -15 -9 -20 -5 -5 -6 -2
-1 6 5 9 3 12 -6 9 -8 -3 -18 -17 -24 -32 -8 -24 -6 -31 18 -52 15 -13 73 -37
130 -54 56 -17 140 -45 187 -62 47 -16 93 -31 102 -31 9 -1 15 -4 12 -8 -5 -9
26 -20 37 -13 5 3 8 0 7 -8 -2 -7 5 -12 14 -12 10 1 16 -2 13 -6 -6 -10 19
-31 42 -35 10 -1 17 -7 16 -13 -3 -14 54 -62 73 -62 8 0 17 7 21 16 8 21 -15
96 -27 89 -6 -3 -7 1 -4 9 7 18 -14 59 -26 51 -5 -3 -12 0 -16 6 -4 8 -3 9 4
5 18 -11 14 10 -5 25 -15 12 -16 12 -8 -1 4 -8 -8 0 -28 19 -20 19 -35 38 -34
44 1 5 -4 12 -12 15 -9 3 -11 0 -6 -8 5 -9 4 -11 -4 -6 -6 4 -9 11 -6 16 8 12
-53 43 -71 36 -8 -3 -13 -2 -10 3 9 14 -164 73 -194 66 -16 -4 -20 -3 -12 3
11 7 8 11 -10 15 -48 11 -114 16 -138 8z m591 -394 c-8 -8 -15 -7 -26 6 -8 9
-10 12 -3 7 18 -15 28 -12 29 8 0 11 2 13 6 4 3 -8 0 -19 -6 -25z"/>
<path d="M3300 3255 c13 -14 26 -23 28 -20 7 7 -29 45 -41 45 -6 0 0 -11 13
-25z"/>
<path d="M2198 2760 c-96 -89 -114 -123 -105 -201 5 -41 40 -129 51 -129 2 0
-7 26 -20 58 -28 67 -30 121 -8 165 9 18 53 67 98 109 44 42 79 77 76 77 -3 1
-44 -35 -92 -79z"/>
<path d="M2620 2795 c0 -3 13 -29 29 -58 36 -64 71 -166 71 -207 0 -33 -18
-79 -47 -120 -17 -24 -17 -24 0 -11 28 22 57 86 57 124 0 18 -7 58 -16 88 -23
76 -94 216 -94 184z"/>
<path d="M2223 2550 c-12 -5 -25 -21 -29 -36 -14 -56 68 -81 119 -36 24 21 21
37 -9 61 -29 23 -46 25 -81 11z m60 -9 c56 -22 33 -71 -33 -71 -31 0 -40 4
-46 22 -5 16 -1 27 16 40 26 21 30 21 63 9z"/>
<path d="M2510 2506 c-15 -19 -9 -66 11 -79 26 -16 68 0 75 29 8 30 -8 48 -47
58 -17 4 -31 1 -39 -8z m68 -15 c18 -11 12 -41 -10 -55 -25 -15 -52 3 -56 38
-3 23 0 26 25 26 15 0 34 -4 41 -9z"/>
<path d="M2144 2224 c-6 -3 -69 -8 -140 -12 l-129 -7 95 -53 c110 -60 184 -85
330 -107 58 -10 128 -21 155 -26 28 -6 82 -7 120 -4 84 7 257 36 267 44 4 3
-54 33 -130 65 -112 48 -153 60 -222 68 -47 5 -119 16 -160 24 -72 13 -163 17
-186 8z m176 -19 c30 -8 76 -15 101 -15 78 0 158 -20 255 -63 51 -23 92 -43
90 -44 -2 -2 -52 4 -112 12 -60 9 -172 20 -249 26 -219 16 -375 36 -435 58
l-55 20 75 1 c41 1 98 5 125 10 81 12 146 11 205 -5z m-108 -80 c69 -8 148
-15 175 -15 72 1 415 -43 401 -51 -27 -14 -187 -33 -268 -32 -47 0 -112 8
-145 16 -33 9 -97 21 -143 26 -61 6 -100 18 -154 44 -69 34 -71 36 -33 31 22
-2 97 -11 167 -19z"/>
<path d="M2755 660 c-13 -5 -14 -9 -5 -9 8 0 24 4 35 9 13 5 14 9 5 9 -8 0
-24 -4 -35 -9z"/>
<path d="M1838 635 c23 -8 64 -16 90 -19 32 -4 22 0 -33 14 -92 22 -120 24
-57 5z"/>
<path d="M2708 643 c7 -3 16 -2 19 1 4 3 -2 6 -13 5 -11 0 -14 -3 -6 -6z"/>
<path d="M2600 625 c-30 -7 -44 -13 -30 -13 14 0 48 6 75 13 65 16 27 17 -45
0z"/>
<path d="M1993 603 c9 -2 25 -2 35 0 9 3 1 5 -18 5 -19 0 -27 -2 -17 -5z"/>
<path d="M2488 603 c12 -2 30 -2 40 0 9 3 -1 5 -23 4 -22 0 -30 -2 -17 -4z"/>
<path d="M2078 593 c18 -2 45 -2 60 0 15 2 0 4 -33 4 -33 0 -45 -2 -27 -4z"/>
<path d="M2378 593 c18 -2 45 -2 60 0 15 2 0 4 -33 4 -33 0 -45 -2 -27 -4z"/>
<path d="M2217 583 c18 -2 50 -2 70 0 21 2 7 4 -32 4 -38 0 -55 -2 -38 -4z"/>
<path d="M3706 476 c39 -19 97 -50 130 -70 40 -25 49 -28 29 -11 -31 26 -203
115 -220 114 -6 0 22 -15 61 -33z"/>
</g>
</svg>
