<svg width="1920" height="1080" viewBox="0 0 1920 1080" xmlns="http://www.w3.org/2000/svg"><rect width="1920" height="1080" fill="#ff00ff"/><path d="M 0,1080 C 0,1080 0,135 0,135 C 45.576923076923066,126.6948717948718 91.15384615384613,118.38974358974359 208,119 C 324.84615384615387,119.61025641025641 512.9615384615385,129.13589743589745 677,139 C 841.0384615384615,148.86410256410255 981.0000000000002,159.06666666666666 1053,142 C 1124.9999999999998,124.93333333333334 1129.0384615384612,80.59743589743589 1188,85 C 1246.9615384615388,89.40256410256411 1360.8461538461538,142.54358974358973 1492,159 C 1623.1538461538462,175.45641025641027 1771.576923076923,155.22820512820513 1920,135 C 1920,135 1920,1080 1920,1080 Z" fill="#00ffff" opacity="0.075"/><path d="M 0,1080 C 0,1080 0,270 0,270 C 77.14615384615385,249.66923076923078 154.2923076923077,229.33846153846156 259,245 C 363.7076923076923,260.66153846153844 495.97692307692296,312.31538461538463 647,311 C 798.023076923077,309.68461538461537 967.8,255.39999999999995 1069,246 C 1170.2,236.60000000000005 1202.823076923077,272.0846153846154 1298,287 C 1393.176923076923,301.9153846153846 1550.9076923076923,296.26153846153846 1665,290 C 1779.0923076923077,283.73846153846154 1849.5461538461539,276.86923076923074 1920,270 C 1920,270 1920,1080 1920,1080 Z" fill="#00ffff" opacity="0.15"/><path d="M 0,1080 C 0,1080 0,405 0,405 C 108.0230769230769,408.4025641025641 216.0461538461538,411.8051282051282 328,397 C 439.9538461538462,382.1948717948718 555.8384615384616,349.18205128205125 635,357 C 714.1615384615384,364.81794871794875 756.6,413.4666666666667 887,419 C 1017.4,424.5333333333333 1235.7615384615383,386.95128205128213 1382,375 C 1528.2384615384617,363.04871794871787 1602.3538461538462,376.7282051282051 1680,386 C 1757.6461538461538,395.2717948717949 1838.8230769230768,400.13589743589745 1920,405 C 1920,405 1920,1080 1920,1080 Z" fill="#00ffff" opacity="0.22499999999999998"/><path d="M 0,1080 C 0,1080 0,540 0,540 C 41.317948717948696,539.4846153846154 82.63589743589739,538.9692307692308 206,546 C 329.3641025641026,553.0307692307692 534.7743589743591,567.6076923076923 679,557 C 823.2256410256409,546.3923076923077 906.2666666666667,510.5999999999999 1011,511 C 1115.7333333333333,511.4000000000001 1242.1589743589745,547.9923076923077 1334,562 C 1425.8410256410255,576.0076923076923 1483.0974358974358,567.4307692307692 1575,560 C 1666.9025641025642,552.5692307692308 1793.451282051282,546.2846153846153 1920,540 C 1920,540 1920,1080 1920,1080 Z" fill="#00ffff" opacity="0.3"/><path d="M 0,1080 C 0,1080 0,675 0,675 C 155.07179487179488,659.3410256410257 310.14358974358976,643.6820512820512 408,652 C 505.85641025641024,660.3179487179488 546.4974358974358,692.6128205128206 656,704 C 765.5025641025642,715.3871794871794 943.8666666666668,705.8666666666667 1040,701 C 1136.1333333333332,696.1333333333333 1150.0358974358974,695.9205128205128 1210,693 C 1269.9641025641026,690.0794871794872 1375.9897435897437,684.451282051282 1502,681 C 1628.0102564102563,677.548717948718 1774.0051282051281,676.2743589743591 1920,675 C 1920,675 1920,1080 1920,1080 Z" fill="#00ffff" opacity="0.375"/><path d="M 0,1080 C 0,1080 0,810 0,810 C 71.98717948717947,824.3025641025641 143.97435897435895,838.6051282051283 259,825 C 374.02564102564105,811.3948717948717 532.0897435897436,769.8820512820513 648,777 C 763.9102564102564,784.1179487179487 837.6666666666665,839.8666666666667 938,855 C 1038.3333333333335,870.1333333333333 1165.2435897435898,844.651282051282 1296,827 C 1426.7564102564102,809.348717948718 1561.3589743589744,799.5282051282052 1666,798 C 1770.6410256410256,796.4717948717948 1845.3205128205127,803.2358974358974 1920,810 C 1920,810 1920,1080 1920,1080 Z" fill="#00ffff" opacity="0.44999999999999996"/><path d="M 0,1080 C 0,1080 0,945 0,945 C 46.76410256410256,937.4179487179488 93.52820512820512,929.8358974358974 233,942 C 372.4717948717949,954.1641025641026 604.651282051282,986.0743589743589 732,975 C 859.348717948718,963.9256410256411 881.8666666666668,909.8666666666668 961,914 C 1040.1333333333332,918.1333333333332 1175.8820512820512,980.4589743589742 1272,986 C 1368.1179487179488,991.5410256410258 1424.605128205128,940.297435897436 1526,924 C 1627.394871794872,907.702564102564 1773.697435897436,926.3512820512819 1920,945 C 1920,945 1920,1080 1920,1080 Z" fill="#00ffff" opacity="0.525"/></svg>